<svg xmlns="http://www.w3.org/2000/svg" version="1.1" xmlns:xlink="http://www.w3.org/1999/xlink" xmlns:svgjs="http://svgjs.dev/svgjs" width="100%" height="100%" viewBox="0 0 1000 600"><rect width="1000" height="600" x="0" y="0" fill="#ffffff"/><g><circle r="166.66666666666666" cx="322.96520487467444" cy="345.18743449517586" fill="#696969" transform="matrix(0.7997515355255516,0,0,0.7997515355255516,0,23.93581147191628)"/><path d="M323.9295585949717 420.18745143802084Q309.4058887448574 420.18745143802084 297.9213771732379 415.0442605051836Q286.46608827737305 409.9010695723464 279.94943158406227 400.72514938535267Q273.4327748907514 391.5784518741136 273.19899348471336 379.5971548146632L273.19899348471336 379.5971548146632L293.6256438372886 379.5971548146632Q294.67766016445984 389.91275935609247 302.12944248192287 396.955424212989Q309.61044747514075 403.9980890698854 323.9295585949717 403.9980890698854L323.9295585949717 403.9980890698854Q337.605770848198 403.9980890698854 345.49589330198245 397.1599829432722Q353.38601575576683 390.32187681665914 353.38601575576683 379.5971548146632L353.38601575576683 379.5971548146632Q353.38601575576683 371.18102419729325 348.7396103107605 365.92094256143696Q344.12242754150884 360.66086092558066 337.16743071187665 357.91392940463345Q330.24165655799925 355.19622055944103 318.4356955530774 352.04017157792725L318.4356955530774 352.04017157792725Q303.94124837871783 348.2412237298089 295.20366832804547 344.4422758816904Q286.46608827737305 340.67255070932674 280.27088101736456 332.5778695252591Q274.0464510816013 324.4539656654366 274.0464510816013 310.77775341221025L274.0464510816013 310.77775341221025Q274.0464510816013 298.79645635275983 280.15399031434555 289.53286813850184Q286.26152954708976 280.26927992424385 297.307700982388 275.24297969442557Q308.35387241768615 270.1874567888526 322.6437608617624 270.1874567888526L322.6437608617624 270.1874567888526Q343.2749699446209 270.1874567888526 356.4251740342616 280.50306133028187Q369.5753781239023 290.7894431959564 371.27029331767824 307.8554858367345L371.27029331767824 307.8554858367345L350.2299667742531 307.8554858367345Q349.17795044708186 299.4393552193645 341.3754960205617 293.0103665533179Q333.6022642697963 286.5813778872714 320.7735096134579 286.5813778872714L320.7735096134579 286.5813778872714Q308.76298987825277 286.5813778872714 301.1943168577707 292.80580782303457Q293.6256438372886 299.00101508304317 293.6256438372886 310.16407722136034L293.6256438372886 310.16407722136034Q293.6256438372886 318.14186770240906 298.15515857927596 323.197390607982Q302.6554506455085 328.252913513555 309.2889980418384 330.8829543314831Q315.92254543816824 333.51299514941127 327.90384249761865 336.8736028612084L327.90384249761865 336.8736028612084Q342.42751234773294 340.8771094396101 351.2819831014244 344.7637253149927Q360.107231179361 348.65034119037546 366.41932914238856 356.7742450501979Q372.73142710541606 364.8689262342657 372.73142710541606 378.7496972177753L372.73142710541606 378.7496972177753Q372.73142710541606 389.4744192197711 367.0622280089932 398.94256616431244Q361.36380623681555 408.41071310885377 350.2299667742531 414.31369361131465Q339.0669046359359 420.18745143802084 323.9295585949717 420.18745143802084L323.9295585949717 420.18745143802084Z " fill="#ffffff" transform="matrix(0.7997515355255516,0,0,0.7997515355255516,0,23.93581147191628)"/><path d="M623.5479570463029 419.7503917128189Q609.0666060092581 419.7503917128189 597.6155578049149 414.62218691901626Q586.1936471278091 409.4939821252136 579.6959785538434 400.3447985726341Q573.1983099798776 391.2247525472919 572.9652097619775 379.27836637991095L572.9652097619775 379.27836637991095L593.3323413010003 379.27836637991095Q594.3812922815507 389.5639134947536 601.811361727117 396.58605755899464Q609.2705686999208 403.6082016232357 623.5479570463029 403.6082016232357L623.5479570463029 403.6082016232357Q637.1843197934598 403.6082016232357 645.0514521475889 396.79002024965723Q652.9185845017178 389.9718388760789 652.9185845017178 379.27836637991095L652.9185845017178 379.27836637991095Q652.9185845017178 370.8867585355067 648.2857176709529 365.64200363275404Q643.6819883674257 360.3972487300015 636.7472568848971 357.6583211696751Q629.8416629296062 354.9485311365862 618.0701019256502 351.80167819493465L618.0701019256502 351.80167819493465Q603.6178884158429 348.0137996540577 594.905767771826 344.2259211131808Q586.1936471278091 340.46718009954145 580.016491353456 332.39608505474985Q573.8101980518654 324.29585248272076 573.8101980518654 310.65948973556385L573.8101980518654 310.65948973556385Q573.8101980518654 298.7131035681829 579.899941244506 289.4765074338907Q585.9896844371465 280.2399112995986 597.003669732927 275.228256614746Q608.0176550287076 270.187464402656 622.2659058478523 270.187464402656L622.2659058478523 270.187464402656Q642.8370000775376 270.187464402656 655.9488873344193 280.47301151749866Q669.0607745913009 290.7294211051038 670.7507511710768 307.74573701181237L670.7507511710768 307.74573701181237L649.7717315600662 307.74573701181237Q648.7227805795156 299.3541291674082 640.9430608070992 292.943873175155Q633.1924785619203 286.5336171829017 620.4011041046514 286.5336171829017L620.4011041046514 286.5336171829017Q608.4255804100328 286.5336171829017 600.8789608555165 292.7399104844924Q593.3323413010003 298.91706625884547 593.3323413010003 310.0476016635761L593.3323413010003 310.0476016635761Q593.3323413010003 318.00214659941753 597.848658022815 323.0429388115076Q602.3358372173923 328.0837310235977 608.9500559003081 330.70610847497403Q615.564274583224 333.32848592635025 627.510660750605 336.6793015586645L627.510660750605 336.6793015586645Q641.9920117876497 340.67114279020404 650.8206825406166 344.5464339127934Q659.6202157663462 348.4217250353829 665.9139216496493 356.521957607412Q672.2076275329524 364.5930526522036 672.2076275329524 378.433378090023L672.2076275329524 378.433378090023Q672.2076275329524 389.1268505861909 666.5549472488747 398.5674094111457Q660.8731294375593 408.0079682361004 649.7717315600662 413.89374873807844Q638.6411961553356 419.7503917128189 623.5479570463029 419.7503917128189L623.5479570463029 419.7503917128189ZM753.6178786345685 319.0510975799681L723.6062255799284 319.0510975799681L723.6062255799284 386.8249859344272Q723.6062255799284 395.21659377883145 727.1610039029052 398.68395952009575Q730.7449197531195 402.15132526135994 739.5444529788489 402.15132526135994L739.5444529788489 402.15132526135994L753.6178786345685 402.15132526135994L753.6178786345685 418.29351535094315L736.3976000371973 418.29351535094315Q720.4593726382768 418.29351535094315 712.4756901751978 410.95085848708936Q704.5211452393563 403.6082016232357 704.5211452393563 386.8249859344272L704.5211452393563 386.8249859344272L704.5211452393563 319.0510975799681L689.6318688209863 319.0510975799681L689.6318688209863 303.3168328717102L704.5211452393563 303.3168328717102L704.5211452393563 274.38326832485814L723.6062255799284 274.38326832485814L723.6062255799284 303.3168328717102L753.6178786345685 303.3168328717102L753.6178786345685 319.0510975799681ZM826.8113470552054 420.18745462138156Q810.6691569656223 420.18745462138156 797.5572697087407 412.8447977575279Q784.445382451859 405.5021408936742 776.9861754790553 391.95319072822986Q769.5561060334891 378.433378090023 769.5561060334891 360.6012114206641L769.5561060334891 360.6012114206641Q769.5561060334891 342.97300744196764 777.2192756969554 329.4531948037609Q784.8533078331842 315.9042446383165 798.0817451990159 308.6781378834129Q811.3101825648477 301.45203112850925 827.6563353450933 301.45203112850925L827.6563353450933 301.45203112850925Q844.0316256525765 301.45203112850925 857.2309254911708 308.6781378834129Q870.4593628570025 315.9042446383165 878.1225325204688 329.33664469481084Q885.7857021839351 342.76904475130505 885.7857021839351 360.6012114206641L885.7857021839351 360.6012114206641Q885.7857021839351 378.433378090023 877.9185698298062 391.95319072822986Q870.0514374756773 405.5021408936742 856.619037419183 412.8447977575279Q843.1866373626887 420.18745462138156 826.8113470552054 420.18745462138156L826.8113470552054 420.18745462138156ZM826.8113470552054 403.4042389325731Q837.0968941700481 403.4042389325731 846.1295276136776 398.5674094111457Q855.1330235300696 393.7597174169557 860.698291232435 384.08605837410084Q866.2635589348002 374.4415368584836 866.2635589348002 360.6012114206641L866.2635589348002 360.6012114206641Q866.2635589348002 346.76088598284457 860.8148413413851 337.1163644672272Q855.3661237479698 327.4427054243723 846.5374529950028 322.722426011895Q837.7379197692734 318.00214659941753 827.4523726544307 318.00214659941753L827.4523726544307 318.00214659941753Q816.9628628489255 318.00214659941753 808.2507422049085 322.722426011895Q799.5386215608917 327.4427054243723 794.293866658139 337.1163644672272Q789.0491117553864 346.76088598284457 789.0491117553864 360.6012114206641L789.0491117553864 360.6012114206641Q789.0491117553864 374.64549954914605 794.2064540764264 384.31915859200103Q799.3346588702291 393.9636801076184 807.9302294052959 398.68395952009575Q816.5549374676003 403.4042389325731 826.8113470552054 403.4042389325731L826.8113470552054 403.4042389325731ZM930.04560605772 321.99398783095705Q935.08639826981 312.1455036246771 944.4104069858147 306.6967860312619Q953.7344157018194 301.2189309106092 967.1668157583136 301.2189309106092L967.1668157583136 301.2189309106092L967.1668157583136 320.9450368504066L962.1260235462236 320.9450368504066Q930.04560605772 320.9450368504066 930.04560605772 355.7643818992366L930.04560605772 355.7643818992366L930.04560605772 418.29351535094315L910.9605257171478 418.29351535094315L910.9605257171478 303.3168328717102L930.04560605772 303.3168328717102L930.04560605772 321.99398783095705ZM1094.0898844049275 356.40540749846195Q1094.0898844049275 361.8541250918772 1093.4779963329397 367.94386828451775L1093.4779963329397 367.94386828451775L1001.5782354258184 367.94386828451775Q1002.627186406369 384.9310466639888 1013.2332463208244 394.48815559789364Q1023.8101687080422 404.0161270045609 1038.9325453443125 404.0161270045609L1038.9325453443125 404.0161270045609Q1051.2868568930185 404.0161270045609 1059.5910521557103 398.246896611533Q1067.8661098911643 392.4776662185051 1071.2169255234785 382.8331447028878L1071.2169255234785 382.8331447028878L1091.788019753164 382.8331447028878Q1087.1842904496366 399.41239770103357 1073.3148274845798 409.7853573975889Q1059.4745020467603 420.18745462138156 1038.9325453443125 420.18745462138156L1038.9325453443125 420.18745462138156Q1022.5572550368291 420.18745462138156 1009.64933047061 412.8447977575279Q996.7414059043911 405.5021408936742 989.3987490405374 391.95319072822986Q982.0560921766836 378.433378090023 982.0560921766836 360.6012114206641L982.0560921766836 360.6012114206641Q982.0560921766836 342.76904475130505 989.1947863498748 329.33664469481084Q996.3334805230659 315.9042446383165 1009.241405089285 308.6781378834129Q1022.1493296555038 301.45203112850925 1038.9325453443125 301.45203112850925L1038.9325453443125 301.45203112850925Q1055.278698124558 301.45203112850925 1067.8661098911643 308.56158777446285Q1080.4535216577708 315.70028194765393 1087.2717030313493 328.20028113254773Q1094.0898844049275 340.67114279020404 1094.0898844049275 356.40540749846195L1094.0898844049275 356.40540749846195ZM1074.36377846513 352.41356626692243Q1074.36377846513 341.5161310800919 1069.5560864709403 333.648998725963Q1064.7192569495128 325.781866371834 1056.4441992140587 321.6734750313444Q1048.140003951367 317.59422121809234 1038.0875570544245 317.59422121809234L1038.0875570544245 317.59422121809234Q1023.6062060173796 317.59422121809234 1013.437209011487 326.83081735238454Q1003.2682120055944 336.0674134866766 1001.7821981164813 352.41356626692243L1001.7821981164813 352.41356626692243L1074.36377846513 352.41356626692243Z " fill="#696969" transform="matrix(0.7997515355255516,0,0,0.7997515355255516,0,23.93581147191628)"/></g></svg>